<svg width="22" height="22" viewBox="0 0 22 22" fill="none" xmlns="http://www.w3.org/2000/svg">
<path d="M10.9998 21.7502C5.01675 21.7502 0.166504 16.8999 0.166504 10.9168C0.166504 4.93374 5.01675 0.0834961 10.9998 0.0834961C16.9829 0.0834961 21.8332 4.93374 21.8332 10.9168C21.8332 16.8999 16.9829 21.7502 10.9998 21.7502ZM10.9998 19.5835C15.7863 19.5835 19.6665 15.7033 19.6665 10.9168C19.6665 6.13036 15.7863 2.25016 10.9998 2.25016C6.21337 2.25016 2.33317 6.13036 2.33317 10.9168C2.33317 15.7033 6.21337 19.5835 10.9998 19.5835ZM9.9165 5.50016H12.0832V7.66683H9.9165V5.50016ZM9.9165 9.8335H12.0832V16.3335H9.9165V9.8335Z" fill="#4E4E4E"/>
</svg>
