<svg width="30" height="30" viewBox="0 0 30 30" fill="none" xmlns="http://www.w3.org/2000/svg">
<path d="M25 11.25C24.006 6.26819 19.391 2.5 13.8491 2.5C7.58186 2.5 2.5 7.31901 2.5 13.2625C2.5 16.1182 3.67274 18.713 5.58569 20.6385C6.00686 21.0625 6.28806 21.6418 6.17458 22.2379C5.98728 23.2126 5.56282 24.1219 4.94131 24.8796C6.57654 25.1811 8.27684 24.9096 9.73501 24.1409C10.2505 23.8693 10.5082 23.7334 10.6901 23.7057C10.8174 23.6865 10.9832 23.7045 11.25 23.7503" stroke="#D3AFF6" stroke-width="1.5" stroke-linecap="round" stroke-linejoin="round"/>
<path d="M13.75 20.3271C13.75 23.9592 16.8285 26.9042 20.625 26.9042C21.0714 26.9047 21.5165 26.8635 21.955 26.7812C22.2706 26.7219 22.4285 26.6923 22.5386 26.7091C22.6487 26.7259 22.805 26.809 23.1172 26.975C24.0005 27.4447 25.0305 27.6106 26.0211 27.4264C25.6446 26.9634 25.3875 26.4077 25.274 25.812C25.2053 25.4477 25.3756 25.0938 25.6308 24.8346C26.7896 23.6579 27.5 22.0722 27.5 20.3271C27.5 16.695 24.4215 13.75 20.625 13.75C16.8285 13.75 13.75 16.695 13.75 20.3271Z" stroke="#D3AFF6" stroke-width="1.5" stroke-linejoin="round"/>
</svg>
