<svg width="26" height="27" viewBox="0 0 26 27" fill="none" xmlns="http://www.w3.org/2000/svg">
<path d="M21.5998 9.58333H22.7502C23.9468 9.58333 24.9168 10.5534 24.9168 11.75V16.0833C24.9168 17.28 23.9468 18.25 22.7502 18.25H21.5998C21.0667 22.5252 17.4197 25.8333 13.0002 25.8333V23.6667C16.59 23.6667 19.5002 20.7565 19.5002 17.1667V10.6667C19.5002 7.07682 16.59 4.16667 13.0002 4.16667C9.41031 4.16667 6.50016 7.07682 6.50016 10.6667V18.25H3.25016C2.05355 18.25 1.0835 17.28 1.0835 16.0833V11.75C1.0835 10.5534 2.05355 9.58333 3.25016 9.58333H4.40054C4.93365 5.30816 8.58058 2 13.0002 2C17.4197 2 21.0667 5.30816 21.5998 9.58333ZM3.25016 11.75V16.0833H4.3335V11.75H3.25016ZM21.6668 11.75V16.0833H22.7502V11.75H21.6668ZM8.40622 18.017L9.55471 16.1794C10.5536 16.8051 11.7346 17.1667 13.0002 17.1667C14.2657 17.1667 15.4468 16.8051 16.4456 16.1794L17.5941 18.017C16.2623 18.8511 14.6876 19.3333 13.0002 19.3333C11.3128 19.3333 9.73805 18.8511 8.40622 18.017Z" fill="#DBDBDB"/>
</svg>
