<svg width="26" height="26" viewBox="0 0 26 26" fill="none" xmlns="http://www.w3.org/2000/svg">
<path d="M12.9998 23.8298C7.01675 23.8298 2.1665 18.9796 2.1665 12.9964C2.1665 7.01334 7.01675 2.16309 12.9998 2.16309C18.9829 2.16309 23.8332 7.01334 23.8332 12.9964C23.8332 18.9796 18.9829 23.8298 12.9998 23.8298ZM12.9998 21.6631C17.7863 21.6631 21.6665 17.7829 21.6665 12.9964C21.6665 8.20996 17.7863 4.32975 12.9998 4.32975C8.21337 4.32975 4.33317 8.20996 4.33317 12.9964C4.33317 17.7829 8.21337 21.6631 12.9998 21.6631ZM7.58355 16.5923C9.83645 16.4283 12.0433 15.4851 13.7659 13.7624C15.4885 12.0398 16.4317 9.83304 16.5957 7.58014C16.949 7.81525 17.2844 8.08861 17.596 8.40023C20.1345 10.9386 20.1345 15.0542 17.596 17.5926C15.0576 20.131 10.942 20.131 8.40364 17.5926C8.09202 17.281 7.81867 16.9456 7.58355 16.5923Z" fill="#DBDBDB"/>
</svg>
