<svg width="18" height="18" viewBox="0 0 18 18" fill="none" xmlns="http://www.w3.org/2000/svg">
<path d="M6.50033 0.833374V2.50004H11.5003V0.833374H13.167V2.50004H16.5003C16.9606 2.50004 17.3337 2.87314 17.3337 3.33337V16.6667C17.3337 17.127 16.9606 17.5 16.5003 17.5H1.50033C1.04009 17.5 0.666992 17.127 0.666992 16.6667V3.33337C0.666992 2.87314 1.04009 2.50004 1.50033 2.50004H4.83366V0.833374H6.50033ZM15.667 9.16671H2.33366V15.8334H15.667V9.16671ZM5.66699 10.8334V12.5H4.00033V10.8334H5.66699ZM9.83366 10.8334V12.5H8.16699V10.8334H9.83366ZM14.0003 10.8334V12.5H12.3337V10.8334H14.0003ZM4.83366 4.16671H2.33366V7.50004H15.667V4.16671H13.167V5.83337H11.5003V4.16671H6.50033V5.83337H4.83366V4.16671Z" fill="#2C2C2C"/>
</svg>
