<svg width="24" height="24" viewBox="0 0 24 24" fill="none" xmlns="http://www.w3.org/2000/svg">
<g clip-path="url(#clip0_325_27291)">
<path d="M0.56685 8.34788C0.199256 9.4995 0.0001782 10.7264 0.000225075 11.9999C0.0001782 13.2735 0.199303 14.5005 0.566897 15.6521L12.0002 16.1739L23.4336 15.6522C23.8011 14.5005 24.0003 13.2735 24.0003 12C24.0002 10.7264 23.8012 9.4995 23.4336 8.34783L12.0002 7.82611L0.56685 8.34788Z" fill="white"/>
<path d="M23.4332 8.34783L11.9999 7.82611L0.566477 8.34783C0.45754 8.68927 0.363743 9.03741 0.285133 9.39131H23.7144C23.6359 9.03736 23.5421 8.68917 23.4332 8.34783Z" fill="#FF4C4C"/>
<path d="M0.285053 14.609C0.363569 14.9629 0.457366 15.311 0.566303 15.6524L0.567428 15.6525L11.9996 16.1742L23.4329 15.6525C23.5419 15.3111 23.6356 14.9629 23.7142 14.609H0.285053Z" fill="#FF4C4C"/>
<path d="M12.0004 24.0007C17.3543 24.0007 21.8885 20.4943 23.4337 15.6529H0.567112C2.11235 20.4943 6.64666 24.0007 12.0004 24.0007Z" fill="#29C184"/>
<path d="M12.0001 -0.000823974C6.64629 -0.000777099 2.11207 3.50561 0.566742 8.347L23.4334 8.34705C21.8882 3.50557 17.3539 -0.000870849 12.0001 -0.000823974Z" fill="#1570EF"/>
<path d="M5.48348 4.95627C5.48348 3.83235 6.27337 2.89344 7.3282 2.6631C7.16611 2.62766 6.99787 2.60849 6.82509 2.60849C5.52843 2.60849 4.47726 3.65962 4.47726 4.95632C4.47726 6.25302 5.52834 7.30415 6.82509 7.30415C6.99787 7.30415 7.16606 7.28493 7.3282 7.24954C6.27342 7.0191 5.48348 6.0802 5.48348 4.95627Z" fill="white"/>
<path d="M8.71538 6.02243L8.87429 6.51157H9.3886L8.97254 6.81392L9.13145 7.30306L8.71538 7.00076L8.29922 7.30306L8.45818 6.81392L8.04206 6.51157H8.55638L8.71538 6.02243Z" fill="white"/>
<path d="M10.3576 6.02243L10.5166 6.51157H11.0309L10.6148 6.81392L10.7737 7.30306L10.3576 7.00076L9.9415 7.30306L10.1005 6.81392L9.68439 6.51157H10.1987L10.3576 6.02243Z" fill="white"/>
<path d="M11.9988 6.02243L12.1577 6.51157H12.672L12.2559 6.81392L12.4148 7.30306L11.9988 7.00076L11.5826 7.30306L11.7416 6.81392L11.3254 6.51157H11.8398L11.9988 6.02243Z" fill="white"/>
<path d="M13.6409 6.02243L13.7998 6.51157H14.3141L13.898 6.81392L14.057 7.30306L13.6409 7.00076L13.2247 7.30306L13.3837 6.81392L12.9676 6.51157H13.4819L13.6409 6.02243Z" fill="white"/>
<path d="M15.2822 6.02243L15.4412 6.51157H15.9555L15.5394 6.81392L15.6984 7.30306L15.2822 7.00076L14.8661 7.30306L15.0251 6.81392L14.609 6.51157H15.1233L15.2822 6.02243Z" fill="white"/>
<path d="M10.3576 4.31516L10.5166 4.80425H11.0309L10.6148 5.10664L10.7737 5.59573L10.3576 5.29344L9.9415 5.59573L10.1005 5.10664L9.68439 4.80425H10.1987L10.3576 4.31516Z" fill="white"/>
<path d="M11.9988 4.31516L12.1577 4.80425H12.672L12.2559 5.10664L12.4148 5.59573L11.9988 5.29344L11.5826 5.59573L11.7416 5.10664L11.3254 4.80425H11.8398L11.9988 4.31516Z" fill="white"/>
<path d="M13.6409 4.31516L13.7998 4.80425H14.3141L13.898 5.10664L14.057 5.59573L13.6409 5.29344L13.2247 5.59573L13.3837 5.10664L12.9676 4.80425H13.4819L13.6409 4.31516Z" fill="white"/>
<path d="M15.2822 4.31516L15.4412 4.80425H15.9555L15.5394 5.10664L15.6984 5.59573L15.2822 5.29344L14.8661 5.59573L15.0251 5.10664L14.609 4.80425H15.1233L15.2822 4.31516Z" fill="white"/>
<path d="M11.9988 2.60806L12.1577 3.09725H12.672L12.2559 3.39955L12.4148 3.88873L11.9988 3.58644L11.5826 3.88873L11.7416 3.39955L11.3254 3.09725H11.8398L11.9988 2.60806Z" fill="white"/>
<path d="M13.6409 2.60806L13.7998 3.09725H14.3141L13.898 3.39955L14.057 3.88873L13.6409 3.58644L13.2247 3.88873L13.3837 3.39955L12.9676 3.09725H13.4819L13.6409 2.60806Z" fill="white"/>
<path d="M15.2822 2.60806L15.4412 3.09725H15.9555L15.5394 3.39955L15.6984 3.88873L15.2822 3.58644L14.8661 3.88873L15.0251 3.39955L14.609 3.09725H15.1233L15.2822 2.60806Z" fill="white"/>
</g>
<defs>
<clipPath id="clip0_325_27291">
<rect width="24" height="24" fill="white"/>
</clipPath>
</defs>
</svg>
