<svg width="20" height="20" viewBox="0 0 20 20" fill="none" xmlns="http://www.w3.org/2000/svg">
<path d="M11.667 15.8333H12.5003V17.5H1.66699V15.8333H2.50033V3.33333C2.50033 2.8731 2.87343 2.5 3.33366 2.5H10.8337C11.2939 2.5 11.667 2.8731 11.667 3.33333V10H13.3337C14.2542 10 15.0003 10.7462 15.0003 11.6667V15C15.0003 15.4602 15.3734 15.8333 15.8337 15.8333C16.2939 15.8333 16.667 15.4602 16.667 15V9.16667H15.0003C14.5401 9.16667 14.167 8.79358 14.167 8.33333V5.34517L12.7862 3.96447L13.9648 2.78596L18.0896 6.91074C18.2523 7.07347 18.3337 7.28673 18.3337 7.5V15C18.3337 16.3807 17.2144 17.5 15.8337 17.5C14.4529 17.5 13.3337 16.3807 13.3337 15V11.6667H11.667V15.8333ZM4.16699 15.8333H10.0003V10.8333H4.16699V15.8333ZM4.16699 4.16667V9.16667H10.0003V4.16667H4.16699Z" fill="#2C2C2C"/>
</svg>
