<svg width="18" height="18" viewBox="0 0 18 18" fill="none" xmlns="http://www.w3.org/2000/svg">
<path d="M13.4115 14.4726C12.1356 15.2816 10.6224 15.7502 8.99974 15.7502C4.9556 15.7502 1.59112 12.8403 0.885742 9.00015C1.21325 7.21712 2.114 5.63468 3.38986 4.45093L1.04476 2.10583L2.10542 1.04517L16.9547 15.8944L15.894 16.9551L13.4115 14.4726ZM4.45121 5.51228C3.45456 6.42012 2.72786 7.6254 2.4166 9.00015C3.10468 12.0391 5.82296 14.2502 8.99974 14.2502C10.1993 14.2502 11.3335 13.9349 12.3177 13.3788L10.7965 11.8576C10.2762 12.1854 9.66011 12.3752 8.99974 12.3752C7.13575 12.3752 5.62471 10.8641 5.62471 9.00015C5.62471 8.3397 5.81439 7.72358 6.14224 7.20332L4.45121 5.51228ZM9.68494 10.746L7.25386 8.31495C7.17049 8.5272 7.12471 8.75828 7.12471 9.00015C7.12471 10.0357 7.96421 10.8752 8.99974 10.8752C9.24154 10.8752 9.47269 10.8293 9.68494 10.746ZM15.6046 12.4444L14.5315 11.3713C15.0234 10.6701 15.3861 9.86895 15.5828 9.00015C14.8947 5.96114 12.1764 3.75012 8.99974 3.75012C8.36531 3.75012 7.74919 3.8383 7.16388 4.00364L5.98036 2.82012C6.91546 2.4522 7.93399 2.25012 8.99974 2.25012C13.0438 2.25012 16.4083 5.15994 17.1137 9.00015C16.8795 10.2749 16.3524 11.4471 15.6046 12.4444ZM8.79169 5.63143C8.86046 5.62725 8.92984 5.62512 8.99974 5.62512C10.8636 5.62512 12.3747 7.13616 12.3747 9.00015C12.3747 9.06998 12.3726 9.13935 12.3684 9.20813L8.79169 5.63143Z" fill="#5D5D5D"/>
</svg>
