<svg width="26" height="26" viewBox="0 0 26 26" fill="none" xmlns="http://www.w3.org/2000/svg">
<path d="M12.9998 23.8334C7.01675 23.8334 2.1665 18.9831 2.1665 13.0001C2.1665 7.01699 7.01675 2.16675 12.9998 2.16675C18.9829 2.16675 23.8332 7.01699 23.8332 13.0001C23.8332 18.9831 18.9829 23.8334 12.9998 23.8334ZM10.519 21.3064C9.47622 19.0948 8.83693 16.6555 8.69609 14.0834H4.40022C4.82934 17.5246 7.27593 20.3393 10.519 21.3064ZM10.8664 14.0834C11.0294 16.7254 11.7841 19.2073 12.9998 21.3981C14.2156 19.2073 14.9703 16.7254 15.1332 14.0834H10.8664ZM21.5994 14.0834H17.3036C17.1628 16.6555 16.5235 19.0948 15.4807 21.3064C18.7237 20.3393 21.1703 17.5246 21.5994 14.0834ZM4.40022 11.9167H8.69609C8.83693 9.34467 9.47622 6.90532 10.519 4.69369C7.27593 5.66086 4.82934 8.47554 4.40022 11.9167ZM10.8664 11.9167H15.1332C14.9703 9.27474 14.2156 6.79285 12.9998 4.60207C11.7841 6.79285 11.0294 9.27474 10.8664 11.9167ZM15.4807 4.69369C16.5235 6.90532 17.1628 9.34467 17.3036 11.9167H21.5994C21.1703 8.47554 18.7237 5.66086 15.4807 4.69369Z" fill="#DBDBDB"/>
</svg>
