<svg width="26" height="27" viewBox="0 0 26 27" fill="none" xmlns="http://www.w3.org/2000/svg">
<path d="M20.5832 3.08334C21.1815 3.08334 21.6665 3.56834 21.6665 4.16667L21.6665 23.6667C21.6665 24.265 21.1815 24.75 20.5832 24.75L5.4165 24.75C4.81818 24.75 4.33317 24.265 4.33317 23.6667L4.33317 20.4167L6.49984 20.4167L6.49984 22.5833L19.4998 22.5833L19.4998 5.25L6.49984 5.25L6.49984 7.41667L4.33317 7.41667L4.33317 4.16667C4.33317 3.56834 4.81818 3.08333 5.4165 3.08333L20.5832 3.08334ZM6.49984 9.58333L6.49984 12.8333L14.0832 12.8333L14.0832 15L6.49984 15L6.49984 18.25L1.08317 13.9167L6.49984 9.58333Z" fill="#BE0909"/>
</svg>
