<svg width="16" height="16" viewBox="0 0 16 16" fill="none" xmlns="http://www.w3.org/2000/svg">
<path d="M6.53353 10.6226C4.08729 10.2966 2.2002 8.20203 2.2002 5.66663C2.2002 2.9052 4.43877 0.666626 7.2002 0.666626C9.9616 0.666626 12.2002 2.9052 12.2002 5.66663C12.2002 8.20203 10.3131 10.2966 7.86686 10.6226V12H11.2002V13.3333H7.86686V16H6.53353V13.3333H3.2002V12H6.53353V10.6226ZM7.2002 9.33329C9.22526 9.33329 10.8669 7.69169 10.8669 5.66663C10.8669 3.64158 9.22526 1.99996 7.2002 1.99996C5.17515 1.99996 3.53353 3.64158 3.53353 5.66663C3.53353 7.69169 5.17515 9.33329 7.2002 9.33329Z" fill="#2C2C2C"/>
</svg>
