<svg width="20" height="20" viewBox="0 0 20 20" fill="none" xmlns="http://www.w3.org/2000/svg">
<path d="M6.66675 11.25H13.3334M6.66675 7.08337H10.0001" stroke="#F72585" stroke-width="1.5" stroke-linecap="round" stroke-linejoin="round"/>
<path d="M5.08242 15.8334C3.999 15.7268 3.18737 15.4014 2.64306 14.857C1.66675 13.8808 1.66675 12.3094 1.66675 9.16671V8.75004C1.66675 5.60734 1.66675 4.036 2.64306 3.05968C3.61937 2.08337 5.19071 2.08337 8.33341 2.08337H11.6667C14.8094 2.08337 16.3808 2.08337 17.3571 3.05968C18.3334 4.036 18.3334 5.60734 18.3334 8.75004V9.16671C18.3334 12.3094 18.3334 13.8808 17.3571 14.857C16.3808 15.8334 14.8094 15.8334 11.6667 15.8334C11.1997 15.8438 10.8277 15.8793 10.4622 15.9625C9.46358 16.1925 8.53883 16.7035 7.62497 17.1491C6.32282 17.784 5.67175 18.1015 5.26316 17.8043C4.48149 17.2221 5.24553 15.4183 5.41675 14.5834" stroke="#F72585" stroke-width="1.5" stroke-linecap="round"/>
</svg>
