<svg width="26" height="27" viewBox="0 0 26 27" fill="none" xmlns="http://www.w3.org/2000/svg">
<path d="M20.5833 11.7502H21.6667C22.265 11.7502 22.75 12.2352 22.75 12.8335V23.6668C22.75 24.2652 22.265 24.7502 21.6667 24.7502H4.33333C3.73503 24.7502 3.25 24.2652 3.25 23.6668V12.8335C3.25 12.2352 3.73503 11.7502 4.33333 11.7502H5.41667V10.6668C5.41667 6.47867 8.81184 3.0835 13 3.0835C17.1882 3.0835 20.5833 6.47867 20.5833 10.6668V11.7502ZM5.41667 13.9168V22.5835H20.5833V13.9168H5.41667ZM11.9167 16.0835H14.0833V20.4168H11.9167V16.0835ZM18.4167 11.7502V10.6668C18.4167 7.67529 15.9915 5.25016 13 5.25016C10.0085 5.25016 7.58333 7.67529 7.58333 10.6668V11.7502H18.4167Z" fill="#DBDBDB"/>
</svg>
