<svg width="14" height="19" viewBox="0 0 14 19" fill="none" xmlns="http://www.w3.org/2000/svg">
<path d="M0.333008 18.3334C0.333008 14.6515 3.31777 11.6667 6.99967 11.6667C10.6816 11.6667 13.6663 14.6515 13.6663 18.3334H11.9997C11.9997 15.572 9.76109 13.3334 6.99967 13.3334C4.23825 13.3334 1.99967 15.572 1.99967 18.3334H0.333008ZM6.99967 10.8334C4.23717 10.8334 1.99967 8.59587 1.99967 5.83337C1.99967 3.07087 4.23717 0.833374 6.99967 0.833374C9.76217 0.833374 11.9997 3.07087 11.9997 5.83337C11.9997 8.59587 9.76217 10.8334 6.99967 10.8334ZM6.99967 9.16671C8.84134 9.16671 10.333 7.67504 10.333 5.83337C10.333 3.99171 8.84134 2.50004 6.99967 2.50004C5.15801 2.50004 3.66634 3.99171 3.66634 5.83337C3.66634 7.67504 5.15801 9.16671 6.99967 9.16671Z" fill="#2C2C2C"/>
</svg>
