<svg width="14" height="18" viewBox="0 0 14 18" fill="none" xmlns="http://www.w3.org/2000/svg">
<path d="M0.333252 13.984V7.08957C0.333252 4.06176 0.333252 2.54786 1.30956 1.60724C2.28588 0.666626 3.85722 0.666626 6.99992 0.666626C10.1426 0.666626 11.714 0.666626 12.6903 1.60724C13.6666 2.54786 13.6666 4.06176 13.6666 7.08957V13.984C13.6666 15.9055 13.6666 16.8663 13.0226 17.2102C11.7753 17.8761 9.43592 15.6543 8.32492 14.9853C7.68059 14.5973 7.35842 14.4033 6.99992 14.4033C6.64142 14.4033 6.31925 14.5973 5.67492 14.9853C4.56392 15.6543 2.22448 17.8761 0.977294 17.2102C0.333252 16.8663 0.333252 15.9055 0.333252 13.984Z" fill="#5A189A"/>
</svg>
