<svg width="20" height="20" viewBox="0 0 20 20" fill="none" xmlns="http://www.w3.org/2000/svg">
<path d="M15.0257 13.8473L18.5946 17.4162L17.4161 18.5947L13.8472 15.0258C12.5639 16.0525 10.9365 16.6666 9.1665 16.6666C5.0265 16.6666 1.6665 13.3066 1.6665 9.16663C1.6665 5.02663 5.0265 1.66663 9.1665 1.66663C13.3065 1.66663 16.6665 5.02663 16.6665 9.16663C16.6665 10.9366 16.0523 12.564 15.0257 13.8473ZM13.3538 13.229C14.3728 12.1788 14.9998 10.7463 14.9998 9.16663C14.9998 5.94371 12.3894 3.33329 9.1665 3.33329C5.94359 3.33329 3.33317 5.94371 3.33317 9.16663C3.33317 12.3895 5.94359 15 9.1665 15C10.7462 15 12.1787 14.3729 13.2288 13.3539L13.3538 13.229Z" fill="white"/>
</svg>
