<svg width="20" height="20" viewBox="0 0 20 20" fill="none" xmlns="http://www.w3.org/2000/svg">
<path d="M16.667 10.8333C16.667 12.6742 15.9208 14.3409 14.7144 15.5474L15.8929 16.7259C17.4009 15.2178 18.3337 13.1345 18.3337 10.8333C18.3337 6.23096 14.6027 2.5 10.0003 2.5C5.39795 2.5 1.66699 6.23096 1.66699 10.8333C1.66699 13.1345 2.59973 15.2178 4.10777 16.7259L5.28628 15.5474C4.07985 14.3409 3.33366 12.6742 3.33366 10.8333C3.33366 7.15143 6.31843 4.16667 10.0003 4.16667C13.6822 4.16667 16.667 7.15143 16.667 10.8333ZM12.7445 6.91081L8.99449 10.6608L10.173 11.8393L13.923 8.08932L12.7445 6.91081Z" fill="#2C2C2C"/>
</svg>
