<svg width="26" height="26" viewBox="0 0 26 26" fill="none" xmlns="http://www.w3.org/2000/svg">
<path d="M20.5832 21.6666H5.4165V22.7499C5.4165 23.3482 4.93147 23.8333 4.33317 23.8333H3.24984C2.65153 23.8333 2.1665 23.3482 2.1665 22.7499V11.9166L4.85371 5.64643C5.19514 4.84977 5.97847 4.33325 6.84519 4.33325H19.1545C20.0212 4.33325 20.8045 4.84977 21.146 5.64643L23.8332 11.9166V22.7499C23.8332 23.3482 23.3482 23.8333 22.7498 23.8333H21.6665C21.0682 23.8333 20.5832 23.3482 20.5832 22.7499V21.6666ZM21.6665 14.0833H4.33317V19.4999H21.6665V14.0833ZM4.52377 11.9166H21.4759L19.1545 6.49992H6.84519L4.52377 11.9166ZM7.0415 18.4166C6.14404 18.4166 5.4165 17.689 5.4165 16.7916C5.4165 15.8942 6.14404 15.1666 7.0415 15.1666C7.93897 15.1666 8.6665 15.8942 8.6665 16.7916C8.6665 17.689 7.93897 18.4166 7.0415 18.4166ZM18.9582 18.4166C18.0607 18.4166 17.3332 17.689 17.3332 16.7916C17.3332 15.8942 18.0607 15.1666 18.9582 15.1666C19.8556 15.1666 20.5832 15.8942 20.5832 16.7916C20.5832 17.689 19.8556 18.4166 18.9582 18.4166Z" fill="#DBDBDB"/>
</svg>
